<mxfile host="65bd71144e" scale="1" border="0">
    <diagram id="-TkkRAmG4_V0f1dHDEug" name="Page-1">
        <mxGraphModel dx="2060" dy="874" grid="1" gridSize="10" guides="1" tooltips="1" connect="1" arrows="1" fold="1" page="1" pageScale="1" pageWidth="850" pageHeight="1100" background="none" math="0" shadow="0">
            <root>
                <mxCell id="0"/>
                <mxCell id="1" parent="0"/>
                <mxCell id="5" style="edgeStyle=none;html=1;exitX=0.5;exitY=1;exitDx=0;exitDy=0;entryX=0.5;entryY=0;entryDx=0;entryDy=0;strokeWidth=2;fillColor=#000000;labelBackgroundColor=#000000;labelBorderColor=none;fontStyle=0;strokeColor=#F0F0F0;fontColor=#F0F0F0;" parent="1" source="3" target="17" edge="1">
                    <mxGeometry relative="1" as="geometry">
                        <mxPoint x="175" y="250" as="targetPoint"/>
                    </mxGeometry>
                </mxCell>
                <mxCell id="3" value="인사담당자 로그인 및&lt;br&gt;화면 접속" style="rounded=0;whiteSpace=wrap;html=1;strokeWidth=2;fillColor=#000000;labelBackgroundColor=#000000;labelBorderColor=none;fontStyle=0;strokeColor=#F0F0F0;fontColor=#F0F0F0;" parent="1" vertex="1">
                    <mxGeometry x="115" y="150" width="120" height="60" as="geometry"/>
                </mxCell>
                <mxCell id="6" value="yes" style="edgeStyle=none;html=1;exitX=0.5;exitY=1;exitDx=0;exitDy=0;entryX=0.5;entryY=0;entryDx=0;entryDy=0;strokeWidth=2;fillColor=#000000;labelBackgroundColor=#000000;labelBorderColor=none;fontStyle=0;strokeColor=#F0F0F0;fontColor=#F0F0F0;" parent="1" source="17" target="25" edge="1">
                    <mxGeometry relative="1" as="geometry">
                        <mxPoint x="175" y="320" as="sourcePoint"/>
                        <mxPoint x="175" y="380" as="targetPoint"/>
                    </mxGeometry>
                </mxCell>
                <mxCell id="27" value="no" style="edgeStyle=none;html=1;fontFamily=Helvetica;fontSize=12;fontColor=#F0F0F0;strokeWidth=2;fillColor=#000000;labelBackgroundColor=#000000;labelBorderColor=none;fontStyle=0;strokeColor=#F0F0F0;" parent="1" source="17" target="26" edge="1">
                    <mxGeometry relative="1" as="geometry"/>
                </mxCell>
                <mxCell id="17" value="질문지 유무" style="rhombus;whiteSpace=wrap;html=1;rounded=0;shadow=0;fontFamily=Helvetica;fontSize=12;strokeWidth=2;fillColor=#000000;labelBackgroundColor=#000000;labelBorderColor=none;fontStyle=0;strokeColor=#F0F0F0;fontColor=#F0F0F0;" parent="1" vertex="1">
                    <mxGeometry x="115" y="290" width="120" height="80" as="geometry"/>
                </mxCell>
                <mxCell id="39" value="yes" style="edgeStyle=none;html=1;exitX=0.5;exitY=1;exitDx=0;exitDy=0;entryX=0.5;entryY=0;entryDx=0;entryDy=0;fontFamily=Helvetica;fontSize=12;fontColor=#F0F0F0;strokeWidth=2;fillColor=#000000;labelBackgroundColor=#000000;labelBorderColor=none;fontStyle=0;strokeColor=#F0F0F0;" parent="1" source="25" target="38" edge="1">
                    <mxGeometry relative="1" as="geometry"/>
                </mxCell>
                <mxCell id="25" value="프로젝트 입력" style="shape=parallelogram;perimeter=parallelogramPerimeter;whiteSpace=wrap;html=1;fixedSize=1;rounded=0;shadow=0;fontFamily=Helvetica;fontSize=12;strokeWidth=2;fillColor=#000000;labelBackgroundColor=#000000;labelBorderColor=none;fontStyle=0;strokeColor=#F0F0F0;fontColor=#F0F0F0;" parent="1" vertex="1">
                    <mxGeometry x="115" y="450" width="120" height="60" as="geometry"/>
                </mxCell>
                <mxCell id="30" value="" style="edgeStyle=none;html=1;fontFamily=Helvetica;fontSize=12;fontColor=#F0F0F0;strokeWidth=2;fillColor=#000000;labelBackgroundColor=#000000;labelBorderColor=none;fontStyle=0;strokeColor=#F0F0F0;" parent="1" source="26" target="29" edge="1">
                    <mxGeometry relative="1" as="geometry"/>
                </mxCell>
                <mxCell id="26" value="질문지 입력" style="shape=parallelogram;perimeter=parallelogramPerimeter;whiteSpace=wrap;html=1;fixedSize=1;rounded=0;shadow=0;strokeWidth=2;fillColor=#000000;labelBackgroundColor=#000000;labelBorderColor=none;fontStyle=0;strokeColor=#F0F0F0;fontColor=#F0F0F0;" parent="1" vertex="1">
                    <mxGeometry x="315" y="300" width="120" height="60" as="geometry"/>
                </mxCell>
                <mxCell id="34" value="yes" style="edgeStyle=none;html=1;fontFamily=Helvetica;fontSize=12;fontColor=#F0F0F0;strokeWidth=2;fillColor=#000000;labelBackgroundColor=#000000;labelBorderColor=none;fontStyle=0;strokeColor=#F0F0F0;" parent="1" source="29" target="33" edge="1">
                    <mxGeometry relative="1" as="geometry"/>
                </mxCell>
                <mxCell id="121" value="no" style="edgeStyle=none;html=1;exitX=0.5;exitY=1;exitDx=0;exitDy=0;entryX=0.5;entryY=1;entryDx=0;entryDy=0;strokeWidth=2;" edge="1" parent="1" source="29" target="26">
                    <mxGeometry relative="1" as="geometry">
                        <Array as="points">
                            <mxPoint x="595" y="440"/>
                            <mxPoint x="480" y="440"/>
                            <mxPoint x="375" y="440"/>
                        </Array>
                    </mxGeometry>
                </mxCell>
                <mxCell id="29" value="유효성 검사" style="rhombus;whiteSpace=wrap;html=1;rounded=0;shadow=0;strokeWidth=2;fillColor=#000000;labelBackgroundColor=#000000;labelBorderColor=none;fontStyle=0;strokeColor=#F0F0F0;fontColor=#F0F0F0;" parent="1" vertex="1">
                    <mxGeometry x="535" y="290" width="120" height="80" as="geometry"/>
                </mxCell>
                <mxCell id="120" style="edgeStyle=none;html=1;exitX=0.5;exitY=0;exitDx=0;exitDy=0;entryX=1;entryY=0.5;entryDx=0;entryDy=0;strokeWidth=2;" edge="1" parent="1" source="33" target="3">
                    <mxGeometry relative="1" as="geometry">
                        <Array as="points">
                            <mxPoint x="795" y="180"/>
                            <mxPoint x="560" y="180"/>
                        </Array>
                    </mxGeometry>
                </mxCell>
                <mxCell id="33" value="질문지 생성&amp;nbsp;" style="whiteSpace=wrap;html=1;rounded=0;shadow=0;strokeWidth=2;fillColor=#000000;labelBackgroundColor=#000000;labelBorderColor=none;fontStyle=0;strokeColor=#F0F0F0;fontColor=#F0F0F0;" parent="1" vertex="1">
                    <mxGeometry x="735" y="300" width="120" height="60" as="geometry"/>
                </mxCell>
                <mxCell id="40" value="no" style="edgeStyle=none;html=1;exitX=1;exitY=0.5;exitDx=0;exitDy=0;entryX=1;entryY=0.5;entryDx=0;entryDy=0;fontFamily=Helvetica;fontSize=12;fontColor=#F0F0F0;strokeWidth=2;fillColor=#000000;labelBackgroundColor=#000000;labelBorderColor=none;fontStyle=0;strokeColor=#F0F0F0;" parent="1" source="38" target="25" edge="1">
                    <mxGeometry relative="1" as="geometry">
                        <Array as="points">
                            <mxPoint x="295" y="630"/>
                            <mxPoint x="295" y="560"/>
                            <mxPoint x="295" y="480"/>
                        </Array>
                    </mxGeometry>
                </mxCell>
                <mxCell id="42" style="edgeStyle=none;html=1;exitX=0.5;exitY=1;exitDx=0;exitDy=0;fontFamily=Helvetica;fontSize=12;fontColor=#F0F0F0;strokeWidth=2;fillColor=#000000;labelBackgroundColor=#000000;labelBorderColor=none;fontStyle=0;strokeColor=#F0F0F0;" parent="1" source="38" target="41" edge="1">
                    <mxGeometry relative="1" as="geometry"/>
                </mxCell>
                <mxCell id="38" value="유효성 검사" style="rhombus;whiteSpace=wrap;html=1;rounded=0;shadow=0;fontFamily=Helvetica;fontSize=12;strokeWidth=2;fillColor=#000000;labelBackgroundColor=#000000;labelBorderColor=none;fontStyle=0;strokeColor=#F0F0F0;fontColor=#F0F0F0;" parent="1" vertex="1">
                    <mxGeometry x="115" y="590" width="120" height="80" as="geometry"/>
                </mxCell>
                <mxCell id="44" style="edgeStyle=none;html=1;exitX=0.5;exitY=1;exitDx=0;exitDy=0;fontFamily=Helvetica;fontSize=12;fontColor=#F0F0F0;entryX=0.5;entryY=0;entryDx=0;entryDy=0;strokeWidth=2;fillColor=#000000;labelBackgroundColor=#000000;labelBorderColor=none;fontStyle=0;strokeColor=#F0F0F0;" parent="1" source="41" target="45" edge="1">
                    <mxGeometry relative="1" as="geometry">
                        <mxPoint x="205" y="860" as="targetPoint"/>
                    </mxGeometry>
                </mxCell>
                <mxCell id="41" value="프로젝트 생성" style="whiteSpace=wrap;html=1;rounded=0;shadow=0;strokeWidth=2;fillColor=#000000;labelBackgroundColor=#000000;labelBorderColor=none;fontStyle=0;strokeColor=#F0F0F0;fontColor=#F0F0F0;" parent="1" vertex="1">
                    <mxGeometry x="115" y="730" width="120" height="60" as="geometry"/>
                </mxCell>
                <mxCell id="57" style="edgeStyle=none;html=1;exitX=0.5;exitY=1;exitDx=0;exitDy=0;fontFamily=Helvetica;fontSize=12;fontColor=#F0F0F0;strokeWidth=2;fillColor=#000000;labelBackgroundColor=#000000;labelBorderColor=none;fontStyle=0;strokeColor=#F0F0F0;entryX=0.5;entryY=0;entryDx=0;entryDy=0;" parent="1" source="45" target="114" edge="1">
                    <mxGeometry relative="1" as="geometry">
                        <mxPoint x="175" y="990" as="targetPoint"/>
                        <Array as="points"/>
                    </mxGeometry>
                </mxCell>
                <mxCell id="45" value="후보자 동의요청 및&lt;br&gt;대기" style="whiteSpace=wrap;html=1;rounded=0;shadow=0;strokeWidth=2;fillColor=#000000;labelBackgroundColor=#000000;labelBorderColor=none;fontStyle=0;strokeColor=#F0F0F0;fontColor=#F0F0F0;" parent="1" vertex="1">
                    <mxGeometry x="115" y="860" width="120" height="60" as="geometry"/>
                </mxCell>
                <mxCell id="74" style="edgeStyle=none;html=1;exitX=0.5;exitY=1;exitDx=0;exitDy=0;entryX=0.5;entryY=0;entryDx=0;entryDy=0;fontFamily=Helvetica;fontSize=12;fontColor=#F0F0F0;strokeWidth=2;fillColor=#000000;labelBackgroundColor=#000000;labelBorderColor=none;fontStyle=0;strokeColor=#F0F0F0;" parent="1" source="46" target="73" edge="1">
                    <mxGeometry relative="1" as="geometry"/>
                </mxCell>
                <mxCell id="46" value="후보자 로그인" style="rounded=0;whiteSpace=wrap;html=1;strokeWidth=2;fillColor=#000000;labelBackgroundColor=#000000;labelBorderColor=none;fontStyle=0;strokeColor=#F0F0F0;fontColor=#F0F0F0;" parent="1" vertex="1">
                    <mxGeometry x="1145" y="150" width="120" height="60" as="geometry"/>
                </mxCell>
                <mxCell id="59" value="no" style="edgeStyle=none;html=1;fontFamily=Helvetica;fontSize=12;fontColor=#F0F0F0;strokeWidth=2;fillColor=#000000;labelBackgroundColor=#000000;labelBorderColor=none;fontStyle=0;strokeColor=#F0F0F0;" parent="1" source="56" target="58" edge="1">
                    <mxGeometry relative="1" as="geometry"/>
                </mxCell>
                <mxCell id="61" value="yes" style="edgeStyle=none;html=1;fontFamily=Helvetica;fontSize=12;fontColor=#F0F0F0;strokeWidth=2;fillColor=#000000;labelBackgroundColor=#000000;labelBorderColor=none;fontStyle=0;strokeColor=#F0F0F0;" parent="1" source="56" target="60" edge="1">
                    <mxGeometry relative="1" as="geometry"/>
                </mxCell>
                <mxCell id="56" value="합의 프로세스&lt;br&gt;유무" style="rhombus;whiteSpace=wrap;html=1;rounded=0;shadow=0;fontFamily=Helvetica;fontSize=12;strokeWidth=2;fillColor=#000000;labelBackgroundColor=#000000;labelBorderColor=none;fontStyle=0;strokeColor=#F0F0F0;fontColor=#F0F0F0;" parent="1" vertex="1">
                    <mxGeometry x="115" y="1130" width="120" height="80" as="geometry"/>
                </mxCell>
                <mxCell id="69" value="" style="edgeStyle=none;html=1;fontFamily=Helvetica;fontSize=12;fontColor=#F0F0F0;strokeWidth=2;fillColor=#000000;labelBackgroundColor=#000000;labelBorderColor=none;fontStyle=0;strokeColor=#F0F0F0;" parent="1" source="58" target="68" edge="1">
                    <mxGeometry relative="1" as="geometry"/>
                </mxCell>
                <mxCell id="58" value="인사담당자&lt;br&gt;검수" style="whiteSpace=wrap;html=1;rounded=0;shadow=0;strokeWidth=2;fillColor=#000000;labelBackgroundColor=#000000;labelBorderColor=none;fontStyle=0;strokeColor=#F0F0F0;fontColor=#F0F0F0;" parent="1" vertex="1">
                    <mxGeometry x="115" y="1290" width="120" height="60" as="geometry"/>
                </mxCell>
                <mxCell id="63" style="edgeStyle=none;html=1;exitX=0.5;exitY=1;exitDx=0;exitDy=0;fontFamily=Helvetica;fontSize=12;fontColor=#F0F0F0;strokeWidth=2;fillColor=#000000;labelBackgroundColor=#000000;labelBorderColor=none;fontStyle=0;strokeColor=#F0F0F0;" parent="1" source="60" target="62" edge="1">
                    <mxGeometry relative="1" as="geometry"/>
                </mxCell>
                <mxCell id="60" value="후보자 합의요청&lt;br&gt;대기 및 메시지 대화" style="whiteSpace=wrap;html=1;rounded=0;shadow=0;strokeWidth=2;fillColor=#000000;labelBackgroundColor=#000000;labelBorderColor=none;fontStyle=0;strokeColor=#F0F0F0;fontColor=#F0F0F0;" parent="1" vertex="1">
                    <mxGeometry x="335" y="1140" width="120" height="60" as="geometry"/>
                </mxCell>
                <mxCell id="66" value="yes" style="edgeStyle=none;html=1;exitX=0;exitY=0.5;exitDx=0;exitDy=0;entryX=1;entryY=0.5;entryDx=0;entryDy=0;fontFamily=Helvetica;fontSize=12;fontColor=#F0F0F0;strokeWidth=2;fillColor=#000000;labelBackgroundColor=#000000;labelBorderColor=none;fontStyle=0;strokeColor=#F0F0F0;" parent="1" source="62" target="58" edge="1">
                    <mxGeometry relative="1" as="geometry"/>
                </mxCell>
                <mxCell id="67" value="no" style="edgeStyle=none;html=1;exitX=1;exitY=0.5;exitDx=0;exitDy=0;entryX=1;entryY=0.5;entryDx=0;entryDy=0;fontFamily=Helvetica;fontSize=12;fontColor=#F0F0F0;strokeWidth=2;fillColor=#000000;labelBackgroundColor=#000000;labelBorderColor=none;fontStyle=0;strokeColor=#F0F0F0;" parent="1" source="62" target="60" edge="1">
                    <mxGeometry relative="1" as="geometry">
                        <Array as="points">
                            <mxPoint x="555" y="1320"/>
                            <mxPoint x="555" y="1250"/>
                            <mxPoint x="555" y="1170"/>
                        </Array>
                    </mxGeometry>
                </mxCell>
                <mxCell id="62" value="합의요청&lt;br&gt;여부" style="rhombus;whiteSpace=wrap;html=1;rounded=0;shadow=0;fontFamily=Helvetica;fontSize=12;strokeWidth=2;fillColor=#000000;labelBackgroundColor=#000000;labelBorderColor=none;fontStyle=0;strokeColor=#F0F0F0;fontColor=#F0F0F0;" parent="1" vertex="1">
                    <mxGeometry x="335" y="1280" width="120" height="80" as="geometry"/>
                </mxCell>
                <mxCell id="71" value="" style="edgeStyle=none;html=1;fontFamily=Helvetica;fontSize=12;fontColor=#F0F0F0;strokeWidth=2;fillColor=#000000;labelBackgroundColor=#000000;labelBorderColor=none;fontStyle=0;strokeColor=#F0F0F0;" parent="1" source="68" target="70" edge="1">
                    <mxGeometry relative="1" as="geometry"/>
                </mxCell>
                <mxCell id="68" value="평가 시작&lt;br&gt;(후보자 응답 시작&lt;br&gt;레퍼리 동의요청 및&lt;br&gt;레퍼리 응답 시작)" style="whiteSpace=wrap;html=1;rounded=0;shadow=0;strokeWidth=2;fillColor=#000000;labelBackgroundColor=#000000;labelBorderColor=none;fontStyle=0;strokeColor=#F0F0F0;fontColor=#F0F0F0;" parent="1" vertex="1">
                    <mxGeometry x="115" y="1430" width="120" height="60" as="geometry"/>
                </mxCell>
                <mxCell id="70" value="프로젝트 종료" style="whiteSpace=wrap;html=1;rounded=0;shadow=0;strokeWidth=2;fillColor=#000000;labelBackgroundColor=#000000;labelBorderColor=none;fontStyle=0;strokeColor=#F0F0F0;fontColor=#F0F0F0;" parent="1" vertex="1">
                    <mxGeometry x="115" y="1570" width="120" height="60" as="geometry"/>
                </mxCell>
                <mxCell id="79" style="edgeStyle=none;html=1;exitX=0.5;exitY=1;exitDx=0;exitDy=0;entryX=0.5;entryY=0;entryDx=0;entryDy=0;fontFamily=Helvetica;fontSize=12;fontColor=#F0F0F0;strokeWidth=2;fillColor=#000000;labelBackgroundColor=#000000;labelBorderColor=none;fontStyle=0;strokeColor=#F0F0F0;" parent="1" source="73" target="77" edge="1">
                    <mxGeometry relative="1" as="geometry"/>
                </mxCell>
                <mxCell id="73" value="프로젝트&lt;br&gt;동의하기" style="whiteSpace=wrap;html=1;rounded=0;shadow=0;strokeWidth=2;fillColor=#000000;labelBackgroundColor=#000000;labelBorderColor=none;fontStyle=0;strokeColor=#F0F0F0;fontColor=#F0F0F0;" parent="1" vertex="1">
                    <mxGeometry x="1145" y="290" width="120" height="60" as="geometry"/>
                </mxCell>
                <mxCell id="81" value="yes" style="edgeStyle=none;html=1;fontFamily=Helvetica;fontSize=12;fontColor=#F0F0F0;entryX=0;entryY=0.5;entryDx=0;entryDy=0;exitX=1;exitY=0.5;exitDx=0;exitDy=0;strokeWidth=2;fillColor=#000000;labelBackgroundColor=#000000;labelBorderColor=none;fontStyle=0;strokeColor=#F0F0F0;" parent="1" source="77" target="88" edge="1">
                    <mxGeometry relative="1" as="geometry">
                        <mxPoint x="1220" y="560" as="targetPoint"/>
                    </mxGeometry>
                </mxCell>
                <mxCell id="89" value="no" style="edgeStyle=none;html=1;exitX=0.5;exitY=1;exitDx=0;exitDy=0;entryX=0.5;entryY=0;entryDx=0;entryDy=0;fontFamily=Helvetica;fontSize=12;fontColor=#F0F0F0;strokeWidth=2;fillColor=#000000;labelBackgroundColor=#000000;labelBorderColor=none;fontStyle=0;strokeColor=#F0F0F0;" parent="1" source="77" target="80" edge="1">
                    <mxGeometry relative="1" as="geometry"/>
                </mxCell>
                <mxCell id="77" value="합의 프로세스&lt;br&gt;유무" style="rhombus;whiteSpace=wrap;html=1;rounded=0;shadow=0;strokeWidth=2;fillColor=#000000;labelBackgroundColor=#000000;labelBorderColor=none;fontStyle=0;strokeColor=#F0F0F0;fontColor=#F0F0F0;" parent="1" vertex="1">
                    <mxGeometry x="1145" y="420" width="120" height="80" as="geometry"/>
                </mxCell>
                <mxCell id="83" style="edgeStyle=none;html=1;entryX=0.5;entryY=0;entryDx=0;entryDy=0;fontFamily=Helvetica;fontSize=12;fontColor=#F0F0F0;strokeWidth=2;fillColor=#000000;labelBackgroundColor=#000000;labelBorderColor=none;fontStyle=0;strokeColor=#F0F0F0;" parent="1" source="80" target="82" edge="1">
                    <mxGeometry relative="1" as="geometry"/>
                </mxCell>
                <mxCell id="80" value="인사담당자 검수&lt;br&gt;대기" style="whiteSpace=wrap;html=1;rounded=0;shadow=0;strokeWidth=2;fillColor=#000000;labelBackgroundColor=#000000;labelBorderColor=none;fontStyle=0;strokeColor=#F0F0F0;fontColor=#F0F0F0;" parent="1" vertex="1">
                    <mxGeometry x="1145" y="570" width="120" height="60" as="geometry"/>
                </mxCell>
                <mxCell id="85" value="yes" style="edgeStyle=none;html=1;fontFamily=Helvetica;fontSize=12;fontColor=#F0F0F0;strokeWidth=2;fillColor=#000000;labelBackgroundColor=#000000;labelBorderColor=none;fontStyle=0;strokeColor=#F0F0F0;" parent="1" source="82" target="84" edge="1">
                    <mxGeometry relative="1" as="geometry"/>
                </mxCell>
                <mxCell id="86" value="no" style="edgeStyle=none;html=1;exitX=0;exitY=0.5;exitDx=0;exitDy=0;entryX=0;entryY=0.5;entryDx=0;entryDy=0;fontFamily=Helvetica;fontSize=12;fontColor=#F0F0F0;strokeWidth=2;fillColor=#000000;labelBackgroundColor=#000000;labelBorderColor=none;fontStyle=0;strokeColor=#F0F0F0;" parent="1" source="82" target="80" edge="1">
                    <mxGeometry relative="1" as="geometry">
                        <Array as="points">
                            <mxPoint x="1070" y="750"/>
                            <mxPoint x="1070" y="680"/>
                            <mxPoint x="1070" y="600"/>
                        </Array>
                    </mxGeometry>
                </mxCell>
                <mxCell id="82" value="검수 완료" style="rhombus;whiteSpace=wrap;html=1;rounded=0;shadow=0;strokeWidth=2;fillColor=#000000;labelBackgroundColor=#000000;labelBorderColor=none;fontStyle=0;strokeColor=#F0F0F0;fontColor=#F0F0F0;" parent="1" vertex="1">
                    <mxGeometry x="1145" y="710" width="120" height="80" as="geometry"/>
                </mxCell>
                <mxCell id="92" value="" style="edgeStyle=none;html=1;fontFamily=Helvetica;fontSize=12;fontColor=#F0F0F0;strokeWidth=2;fillColor=#000000;labelBackgroundColor=#000000;labelBorderColor=none;fontStyle=0;strokeColor=#F0F0F0;" parent="1" source="84" target="91" edge="1">
                    <mxGeometry relative="1" as="geometry"/>
                </mxCell>
                <mxCell id="84" value="질문지 응답" style="whiteSpace=wrap;html=1;rounded=0;shadow=0;strokeWidth=2;fillColor=#000000;labelBackgroundColor=#000000;labelBorderColor=none;fontStyle=0;strokeColor=#F0F0F0;fontColor=#F0F0F0;" parent="1" vertex="1">
                    <mxGeometry x="1145" y="880" width="120" height="60" as="geometry"/>
                </mxCell>
                <mxCell id="90" style="edgeStyle=none;html=1;exitX=0.5;exitY=1;exitDx=0;exitDy=0;entryX=1;entryY=0.5;entryDx=0;entryDy=0;fontFamily=Helvetica;fontSize=12;fontColor=#F0F0F0;strokeWidth=2;fillColor=#000000;labelBackgroundColor=#000000;labelBorderColor=none;fontStyle=0;strokeColor=#F0F0F0;" parent="1" source="88" target="80" edge="1">
                    <mxGeometry relative="1" as="geometry">
                        <Array as="points">
                            <mxPoint x="1420" y="600"/>
                        </Array>
                    </mxGeometry>
                </mxCell>
                <mxCell id="88" value="합의요청 및&lt;br&gt;메세지 프로세스" style="rounded=0;whiteSpace=wrap;html=1;shadow=0;fontFamily=Helvetica;fontSize=12;strokeWidth=2;fillColor=#000000;labelBackgroundColor=#000000;labelBorderColor=none;fontStyle=0;strokeColor=#F0F0F0;fontColor=#F0F0F0;" parent="1" vertex="1">
                    <mxGeometry x="1360" y="430" width="120" height="60" as="geometry"/>
                </mxCell>
                <mxCell id="91" value="완료" style="whiteSpace=wrap;html=1;rounded=0;shadow=0;strokeWidth=2;fillColor=#000000;labelBackgroundColor=#000000;labelBorderColor=none;fontStyle=0;strokeColor=#F0F0F0;fontColor=#F0F0F0;" parent="1" vertex="1">
                    <mxGeometry x="1145" y="1020" width="120" height="60" as="geometry"/>
                </mxCell>
                <mxCell id="94" style="edgeStyle=none;html=1;entryX=0.5;entryY=0;entryDx=0;entryDy=0;fontFamily=Helvetica;fontSize=12;fontColor=#F0F0F0;strokeWidth=2;fillColor=#000000;labelBackgroundColor=#000000;labelBorderColor=none;fontStyle=0;strokeColor=#F0F0F0;" parent="1" source="95" target="97" edge="1">
                    <mxGeometry relative="1" as="geometry"/>
                </mxCell>
                <mxCell id="95" value="레퍼리 로그인" style="rounded=0;whiteSpace=wrap;html=1;strokeWidth=2;fillColor=#000000;labelBackgroundColor=#000000;labelBorderColor=none;fontStyle=0;strokeColor=#F0F0F0;fontColor=#F0F0F0;" parent="1" vertex="1">
                    <mxGeometry x="2065" y="150" width="120" height="60" as="geometry"/>
                </mxCell>
                <mxCell id="112" style="edgeStyle=none;html=1;exitX=0.5;exitY=1;exitDx=0;exitDy=0;entryX=0.5;entryY=0;entryDx=0;entryDy=0;fontFamily=Helvetica;fontSize=12;fontColor=#F0F0F0;strokeWidth=2;fillColor=#000000;labelBackgroundColor=#000000;labelBorderColor=none;fontStyle=0;strokeColor=#F0F0F0;" parent="1" source="97" target="107" edge="1">
                    <mxGeometry relative="1" as="geometry"/>
                </mxCell>
                <mxCell id="97" value="프로젝트&lt;br&gt;동의하기" style="whiteSpace=wrap;html=1;rounded=0;shadow=0;strokeWidth=2;fillColor=#000000;labelBackgroundColor=#000000;labelBorderColor=none;fontStyle=0;strokeColor=#F0F0F0;fontColor=#F0F0F0;" parent="1" vertex="1">
                    <mxGeometry x="2065" y="290" width="120" height="60" as="geometry"/>
                </mxCell>
                <mxCell id="106" value="" style="edgeStyle=none;html=1;fontFamily=Helvetica;fontSize=12;fontColor=#F0F0F0;strokeWidth=2;fillColor=#000000;labelBackgroundColor=#000000;labelBorderColor=none;fontStyle=0;strokeColor=#F0F0F0;" parent="1" source="107" target="110" edge="1">
                    <mxGeometry relative="1" as="geometry"/>
                </mxCell>
                <mxCell id="107" value="질문지 응답" style="whiteSpace=wrap;html=1;rounded=0;shadow=0;strokeWidth=2;fillColor=#000000;labelBackgroundColor=#000000;labelBorderColor=none;fontStyle=0;strokeColor=#F0F0F0;fontColor=#F0F0F0;" parent="1" vertex="1">
                    <mxGeometry x="2065" y="430" width="120" height="60" as="geometry"/>
                </mxCell>
                <mxCell id="110" value="완료" style="whiteSpace=wrap;html=1;rounded=0;shadow=0;strokeWidth=2;fillColor=#000000;labelBackgroundColor=#000000;labelBorderColor=none;fontStyle=0;strokeColor=#F0F0F0;fontColor=#F0F0F0;" parent="1" vertex="1">
                    <mxGeometry x="2065" y="570" width="120" height="60" as="geometry"/>
                </mxCell>
                <mxCell id="116" value="no" style="edgeStyle=none;html=1;exitX=0;exitY=0.5;exitDx=0;exitDy=0;entryX=0;entryY=0.5;entryDx=0;entryDy=0;strokeWidth=2;" edge="1" parent="1" source="114" target="45">
                    <mxGeometry relative="1" as="geometry">
                        <Array as="points">
                            <mxPoint x="55" y="1030"/>
                            <mxPoint x="55" y="960"/>
                            <mxPoint x="55" y="890"/>
                        </Array>
                    </mxGeometry>
                </mxCell>
                <mxCell id="117" value="yes" style="edgeStyle=none;html=1;exitX=0.5;exitY=1;exitDx=0;exitDy=0;entryX=0.5;entryY=0;entryDx=0;entryDy=0;strokeWidth=2;" edge="1" parent="1" source="114" target="56">
                    <mxGeometry relative="1" as="geometry">
                        <mxPoint x="175.04347826086973" y="1119.9999999999998" as="targetPoint"/>
                    </mxGeometry>
                </mxCell>
                <mxCell id="114" value="후보자 동의요청&lt;br&gt;여부" style="rhombus;whiteSpace=wrap;html=1;rounded=0;shadow=0;fontFamily=Helvetica;fontSize=12;strokeWidth=2;fillColor=#000000;labelBackgroundColor=#000000;labelBorderColor=none;fontStyle=0;strokeColor=#F0F0F0;fontColor=#F0F0F0;" vertex="1" parent="1">
                    <mxGeometry x="115" y="990" width="120" height="80" as="geometry"/>
                </mxCell>
            </root>
        </mxGraphModel>
    </diagram>
</mxfile>